<mxfile host="Electron" modified="2023-12-06T00:30:07.788Z" agent="Mozilla/5.0 (Windows NT 10.0; Win64; x64) AppleWebKit/537.36 (KHTML, like Gecko) draw.io/22.1.2 Chrome/114.0.5735.289 Electron/25.9.4 Safari/537.36" etag="n7snDgOSsHCLCWWmbV_L" version="22.1.2" type="device">
  <diagram name="Page-1" id="YgQDNYspVn-FMLj6JGo5">
    <mxGraphModel dx="3176" dy="1908" grid="1" gridSize="10" guides="1" tooltips="1" connect="1" arrows="0" fold="1" page="1" pageScale="1" pageWidth="827" pageHeight="1169" math="0" shadow="0">
      <root>
        <mxCell id="0" />
        <mxCell id="1" parent="0" />
        <mxCell id="LNdqoeIzF03pR4x79LL_-1" value="Customer" style="shape=umlActor;verticalLabelPosition=bottom;verticalAlign=top;html=1;" vertex="1" parent="1">
          <mxGeometry x="80" y="90" width="30" height="60" as="geometry" />
        </mxCell>
        <mxCell id="LNdqoeIzF03pR4x79LL_-2" value="Login&amp;nbsp;&lt;br&gt;Screen" style="html=1;whiteSpace=wrap;" vertex="1" parent="1">
          <mxGeometry x="340" y="95" width="110" height="50" as="geometry" />
        </mxCell>
        <mxCell id="LNdqoeIzF03pR4x79LL_-3" value="" style="html=1;points=[[0,0,0,0,5],[0,1,0,0,-5],[1,0,0,0,5],[1,1,0,0,-5]];perimeter=orthogonalPerimeter;outlineConnect=0;targetShapes=umlLifeline;portConstraint=eastwest;newEdgeStyle={&quot;curved&quot;:0,&quot;rounded&quot;:0};" vertex="1" parent="1">
          <mxGeometry x="390" y="220" width="10" height="160" as="geometry" />
        </mxCell>
        <mxCell id="LNdqoeIzF03pR4x79LL_-6" value="" style="endArrow=none;dashed=1;html=1;rounded=0;entryX=0.5;entryY=1;entryDx=0;entryDy=0;" edge="1" parent="1" source="LNdqoeIzF03pR4x79LL_-3" target="LNdqoeIzF03pR4x79LL_-2">
          <mxGeometry width="50" height="50" relative="1" as="geometry">
            <mxPoint x="310" y="320" as="sourcePoint" />
            <mxPoint x="360" y="270" as="targetPoint" />
          </mxGeometry>
        </mxCell>
        <mxCell id="LNdqoeIzF03pR4x79LL_-7" value="Database" style="html=1;whiteSpace=wrap;" vertex="1" parent="1">
          <mxGeometry x="610" y="95" width="110" height="50" as="geometry" />
        </mxCell>
        <mxCell id="LNdqoeIzF03pR4x79LL_-8" value="" style="html=1;points=[[0,0,0,0,5],[0,1,0,0,-5],[1,0,0,0,5],[1,1,0,0,-5]];perimeter=orthogonalPerimeter;outlineConnect=0;targetShapes=umlLifeline;portConstraint=eastwest;newEdgeStyle={&quot;curved&quot;:0,&quot;rounded&quot;:0};" vertex="1" parent="1">
          <mxGeometry x="660" y="220" width="10" height="160" as="geometry" />
        </mxCell>
        <mxCell id="LNdqoeIzF03pR4x79LL_-9" value="" style="endArrow=none;dashed=1;html=1;rounded=0;entryX=0.5;entryY=1;entryDx=0;entryDy=0;" edge="1" parent="1" source="LNdqoeIzF03pR4x79LL_-8" target="LNdqoeIzF03pR4x79LL_-7">
          <mxGeometry width="50" height="50" relative="1" as="geometry">
            <mxPoint x="580" y="320" as="sourcePoint" />
            <mxPoint x="630" y="270" as="targetPoint" />
          </mxGeometry>
        </mxCell>
        <mxCell id="LNdqoeIzF03pR4x79LL_-10" value="" style="html=1;points=[[0,0,0,0,5],[0,1,0,0,-5],[1,0,0,0,5],[1,1,0,0,-5]];perimeter=orthogonalPerimeter;outlineConnect=0;targetShapes=umlLifeline;portConstraint=eastwest;newEdgeStyle={&quot;curved&quot;:0,&quot;rounded&quot;:0};" vertex="1" parent="1">
          <mxGeometry x="90" y="180" width="10" height="200" as="geometry" />
        </mxCell>
        <mxCell id="LNdqoeIzF03pR4x79LL_-11" value="" style="endArrow=classic;html=1;rounded=0;entryX=0;entryY=0;entryDx=0;entryDy=5;entryPerimeter=0;" edge="1" parent="1" source="LNdqoeIzF03pR4x79LL_-10" target="LNdqoeIzF03pR4x79LL_-3">
          <mxGeometry width="50" height="50" relative="1" as="geometry">
            <mxPoint x="280" y="230" as="sourcePoint" />
            <mxPoint x="330" y="180" as="targetPoint" />
          </mxGeometry>
        </mxCell>
        <mxCell id="LNdqoeIzF03pR4x79LL_-21" value="login(customerId,&lt;br style=&quot;font-size: 12px; background-color: rgb(27, 29, 30);&quot;&gt;&lt;span style=&quot;font-size: 12px; background-color: rgb(27, 29, 30);&quot;&gt;&lt;span style=&quot;white-space: pre;&quot;&gt;&amp;nbsp;&amp;nbsp;&amp;nbsp;&amp;nbsp;&lt;/span&gt;&lt;/span&gt;&lt;span style=&quot;font-size: 12px; background-color: rgb(27, 29, 30);&quot;&gt;&lt;span style=&quot;white-space: pre;&quot;&gt;&amp;nbsp;&amp;nbsp;&amp;nbsp;&amp;nbsp;&lt;/span&gt;&lt;/span&gt;&lt;span style=&quot;font-size: 12px; background-color: rgb(27, 29, 30);&quot;&gt;&amp;nbsp; &amp;nbsp;customerPsswd)&lt;/span&gt;" style="edgeLabel;html=1;align=center;verticalAlign=middle;resizable=0;points=[];" vertex="1" connectable="0" parent="LNdqoeIzF03pR4x79LL_-11">
          <mxGeometry x="0.1851" relative="1" as="geometry">
            <mxPoint x="-22" y="-5" as="offset" />
          </mxGeometry>
        </mxCell>
        <mxCell id="LNdqoeIzF03pR4x79LL_-12" value="" style="endArrow=classic;html=1;rounded=0;" edge="1" parent="1" target="LNdqoeIzF03pR4x79LL_-8">
          <mxGeometry width="50" height="50" relative="1" as="geometry">
            <mxPoint x="400" y="235" as="sourcePoint" />
            <mxPoint x="570" y="235" as="targetPoint" />
          </mxGeometry>
        </mxCell>
        <mxCell id="LNdqoeIzF03pR4x79LL_-19" value="customerId: found&lt;br style=&quot;font-size: 12px; background-color: rgb(27, 29, 30);&quot;&gt;&lt;span style=&quot;font-size: 12px; background-color: rgb(27, 29, 30);&quot;&gt;psswd: matched&lt;/span&gt;" style="edgeLabel;html=1;align=center;verticalAlign=middle;resizable=0;points=[];" vertex="1" connectable="0" parent="LNdqoeIzF03pR4x79LL_-12">
          <mxGeometry x="0.209" relative="1" as="geometry">
            <mxPoint x="-18" as="offset" />
          </mxGeometry>
        </mxCell>
        <mxCell id="LNdqoeIzF03pR4x79LL_-15" value="" style="endArrow=classic;html=1;rounded=0;" edge="1" parent="1" source="LNdqoeIzF03pR4x79LL_-8" target="LNdqoeIzF03pR4x79LL_-3">
          <mxGeometry width="50" height="50" relative="1" as="geometry">
            <mxPoint x="410" y="245" as="sourcePoint" />
            <mxPoint x="460" y="350" as="targetPoint" />
            <Array as="points">
              <mxPoint x="580" y="280" />
            </Array>
          </mxGeometry>
        </mxCell>
        <mxCell id="LNdqoeIzF03pR4x79LL_-18" value="Login Fail" style="edgeLabel;html=1;align=center;verticalAlign=middle;resizable=0;points=[];" vertex="1" connectable="0" parent="LNdqoeIzF03pR4x79LL_-15">
          <mxGeometry x="-0.2905" y="1" relative="1" as="geometry">
            <mxPoint x="-38" y="-1" as="offset" />
          </mxGeometry>
        </mxCell>
        <mxCell id="LNdqoeIzF03pR4x79LL_-17" value="" style="endArrow=classic;html=1;rounded=0;" edge="1" parent="1">
          <mxGeometry width="50" height="50" relative="1" as="geometry">
            <mxPoint x="660" y="310" as="sourcePoint" />
            <mxPoint x="400" y="310" as="targetPoint" />
          </mxGeometry>
        </mxCell>
        <mxCell id="LNdqoeIzF03pR4x79LL_-22" value="Customer Inactive" style="edgeLabel;html=1;align=center;verticalAlign=middle;resizable=0;points=[];" vertex="1" connectable="0" parent="LNdqoeIzF03pR4x79LL_-17">
          <mxGeometry x="0.0581" relative="1" as="geometry">
            <mxPoint as="offset" />
          </mxGeometry>
        </mxCell>
        <mxCell id="LNdqoeIzF03pR4x79LL_-25" value="" style="swimlane;startSize=0;" vertex="1" parent="1">
          <mxGeometry x="20" y="30" width="725" height="380" as="geometry" />
        </mxCell>
        <mxCell id="LNdqoeIzF03pR4x79LL_-26" value="Functionality 1:&amp;nbsp;&lt;br&gt;Customer Login" style="text;html=1;align=center;verticalAlign=middle;resizable=0;points=[];autosize=1;strokeColor=none;fillColor=none;" vertex="1" parent="LNdqoeIzF03pR4x79LL_-25">
          <mxGeometry width="110" height="40" as="geometry" />
        </mxCell>
        <mxCell id="LNdqoeIzF03pR4x79LL_-23" value="" style="endArrow=classic;html=1;rounded=0;" edge="1" parent="LNdqoeIzF03pR4x79LL_-25" target="LNdqoeIzF03pR4x79LL_-10">
          <mxGeometry width="50" height="50" relative="1" as="geometry">
            <mxPoint x="370.0000000000001" y="260" as="sourcePoint" />
            <mxPoint x="90" y="260" as="targetPoint" />
          </mxGeometry>
        </mxCell>
        <mxCell id="LNdqoeIzF03pR4x79LL_-24" value="Show Message" style="edgeLabel;html=1;align=center;verticalAlign=middle;resizable=0;points=[];" vertex="1" connectable="0" parent="LNdqoeIzF03pR4x79LL_-23">
          <mxGeometry x="0.0581" relative="1" as="geometry">
            <mxPoint as="offset" />
          </mxGeometry>
        </mxCell>
        <mxCell id="LNdqoeIzF03pR4x79LL_-48" value="" style="endArrow=classic;html=1;rounded=0;" edge="1" parent="LNdqoeIzF03pR4x79LL_-25">
          <mxGeometry width="50" height="50" relative="1" as="geometry">
            <mxPoint x="640" y="330" as="sourcePoint" />
            <mxPoint x="380" y="330" as="targetPoint" />
          </mxGeometry>
        </mxCell>
        <mxCell id="LNdqoeIzF03pR4x79LL_-49" value="Succesful Login" style="edgeLabel;html=1;align=center;verticalAlign=middle;resizable=0;points=[];" vertex="1" connectable="0" parent="LNdqoeIzF03pR4x79LL_-48">
          <mxGeometry x="0.0581" relative="1" as="geometry">
            <mxPoint as="offset" />
          </mxGeometry>
        </mxCell>
        <mxCell id="LNdqoeIzF03pR4x79LL_-50" value="" style="endArrow=classic;html=1;rounded=0;" edge="1" parent="LNdqoeIzF03pR4x79LL_-25" target="LNdqoeIzF03pR4x79LL_-10">
          <mxGeometry width="50" height="50" relative="1" as="geometry">
            <mxPoint x="370" y="330" as="sourcePoint" />
            <mxPoint x="110" y="330" as="targetPoint" />
          </mxGeometry>
        </mxCell>
        <mxCell id="LNdqoeIzF03pR4x79LL_-51" value="Display customer menu" style="edgeLabel;html=1;align=center;verticalAlign=middle;resizable=0;points=[];" vertex="1" connectable="0" parent="LNdqoeIzF03pR4x79LL_-50">
          <mxGeometry x="0.0581" relative="1" as="geometry">
            <mxPoint as="offset" />
          </mxGeometry>
        </mxCell>
        <mxCell id="LNdqoeIzF03pR4x79LL_-27" value="Employee" style="shape=umlActor;verticalLabelPosition=bottom;verticalAlign=top;html=1;" vertex="1" parent="1">
          <mxGeometry x="70" y="635" width="30" height="60" as="geometry" />
        </mxCell>
        <mxCell id="LNdqoeIzF03pR4x79LL_-28" value="Login&amp;nbsp;&lt;br&gt;Screen" style="html=1;whiteSpace=wrap;" vertex="1" parent="1">
          <mxGeometry x="330" y="640" width="110" height="50" as="geometry" />
        </mxCell>
        <mxCell id="LNdqoeIzF03pR4x79LL_-29" value="" style="html=1;points=[[0,0,0,0,5],[0,1,0,0,-5],[1,0,0,0,5],[1,1,0,0,-5]];perimeter=orthogonalPerimeter;outlineConnect=0;targetShapes=umlLifeline;portConstraint=eastwest;newEdgeStyle={&quot;curved&quot;:0,&quot;rounded&quot;:0};" vertex="1" parent="1">
          <mxGeometry x="380" y="765" width="10" height="160" as="geometry" />
        </mxCell>
        <mxCell id="LNdqoeIzF03pR4x79LL_-30" value="" style="endArrow=none;dashed=1;html=1;rounded=0;entryX=0.5;entryY=1;entryDx=0;entryDy=0;" edge="1" parent="1" source="LNdqoeIzF03pR4x79LL_-29" target="LNdqoeIzF03pR4x79LL_-28">
          <mxGeometry width="50" height="50" relative="1" as="geometry">
            <mxPoint x="300" y="865" as="sourcePoint" />
            <mxPoint x="350" y="815" as="targetPoint" />
          </mxGeometry>
        </mxCell>
        <mxCell id="LNdqoeIzF03pR4x79LL_-31" value="Database" style="html=1;whiteSpace=wrap;" vertex="1" parent="1">
          <mxGeometry x="600" y="640" width="110" height="50" as="geometry" />
        </mxCell>
        <mxCell id="LNdqoeIzF03pR4x79LL_-32" value="" style="html=1;points=[[0,0,0,0,5],[0,1,0,0,-5],[1,0,0,0,5],[1,1,0,0,-5]];perimeter=orthogonalPerimeter;outlineConnect=0;targetShapes=umlLifeline;portConstraint=eastwest;newEdgeStyle={&quot;curved&quot;:0,&quot;rounded&quot;:0};" vertex="1" parent="1">
          <mxGeometry x="650" y="765" width="10" height="160" as="geometry" />
        </mxCell>
        <mxCell id="LNdqoeIzF03pR4x79LL_-33" value="" style="endArrow=none;dashed=1;html=1;rounded=0;entryX=0.5;entryY=1;entryDx=0;entryDy=0;" edge="1" parent="1" source="LNdqoeIzF03pR4x79LL_-32" target="LNdqoeIzF03pR4x79LL_-31">
          <mxGeometry width="50" height="50" relative="1" as="geometry">
            <mxPoint x="570" y="865" as="sourcePoint" />
            <mxPoint x="620" y="815" as="targetPoint" />
          </mxGeometry>
        </mxCell>
        <mxCell id="LNdqoeIzF03pR4x79LL_-34" value="" style="html=1;points=[[0,0,0,0,5],[0,1,0,0,-5],[1,0,0,0,5],[1,1,0,0,-5]];perimeter=orthogonalPerimeter;outlineConnect=0;targetShapes=umlLifeline;portConstraint=eastwest;newEdgeStyle={&quot;curved&quot;:0,&quot;rounded&quot;:0};" vertex="1" parent="1">
          <mxGeometry x="80" y="725" width="10" height="200" as="geometry" />
        </mxCell>
        <mxCell id="LNdqoeIzF03pR4x79LL_-35" value="" style="endArrow=classic;html=1;rounded=0;entryX=0;entryY=0;entryDx=0;entryDy=5;entryPerimeter=0;" edge="1" parent="1" source="LNdqoeIzF03pR4x79LL_-34" target="LNdqoeIzF03pR4x79LL_-29">
          <mxGeometry width="50" height="50" relative="1" as="geometry">
            <mxPoint x="270" y="775" as="sourcePoint" />
            <mxPoint x="320" y="725" as="targetPoint" />
          </mxGeometry>
        </mxCell>
        <mxCell id="LNdqoeIzF03pR4x79LL_-36" value="login(employeeId,&lt;br style=&quot;font-size: 12px; background-color: rgb(27, 29, 30);&quot;&gt;&lt;span style=&quot;font-size: 12px; background-color: rgb(27, 29, 30);&quot;&gt;&lt;span style=&quot;white-space: pre;&quot;&gt;&amp;nbsp;&amp;nbsp;&amp;nbsp;&amp;nbsp;&lt;/span&gt;&lt;/span&gt;&lt;span style=&quot;font-size: 12px; background-color: rgb(27, 29, 30);&quot;&gt;&lt;span style=&quot;white-space: pre;&quot;&gt;&amp;nbsp;&amp;nbsp;&amp;nbsp;&amp;nbsp;&lt;/span&gt;&lt;/span&gt;&lt;span style=&quot;font-size: 12px; background-color: rgb(27, 29, 30);&quot;&gt;&amp;nbsp; &amp;nbsp;employeePsswd)&lt;/span&gt;" style="edgeLabel;html=1;align=center;verticalAlign=middle;resizable=0;points=[];" vertex="1" connectable="0" parent="LNdqoeIzF03pR4x79LL_-35">
          <mxGeometry x="0.1851" relative="1" as="geometry">
            <mxPoint x="-22" y="-5" as="offset" />
          </mxGeometry>
        </mxCell>
        <mxCell id="LNdqoeIzF03pR4x79LL_-37" value="" style="endArrow=classic;html=1;rounded=0;" edge="1" parent="1" target="LNdqoeIzF03pR4x79LL_-32">
          <mxGeometry width="50" height="50" relative="1" as="geometry">
            <mxPoint x="390" y="780" as="sourcePoint" />
            <mxPoint x="560" y="780" as="targetPoint" />
          </mxGeometry>
        </mxCell>
        <mxCell id="LNdqoeIzF03pR4x79LL_-38" value="employeeId&amp;nbsp;found&lt;br style=&quot;font-size: 12px; background-color: rgb(27, 29, 30);&quot;&gt;&lt;span style=&quot;font-size: 12px; background-color: rgb(27, 29, 30);&quot;&gt;psswd: matched&lt;/span&gt;" style="edgeLabel;html=1;align=center;verticalAlign=middle;resizable=0;points=[];" vertex="1" connectable="0" parent="LNdqoeIzF03pR4x79LL_-37">
          <mxGeometry x="0.209" relative="1" as="geometry">
            <mxPoint x="-18" as="offset" />
          </mxGeometry>
        </mxCell>
        <mxCell id="LNdqoeIzF03pR4x79LL_-39" value="" style="endArrow=classic;html=1;rounded=0;" edge="1" parent="1" source="LNdqoeIzF03pR4x79LL_-32" target="LNdqoeIzF03pR4x79LL_-29">
          <mxGeometry width="50" height="50" relative="1" as="geometry">
            <mxPoint x="400" y="790" as="sourcePoint" />
            <mxPoint x="450" y="895" as="targetPoint" />
            <Array as="points">
              <mxPoint x="570" y="825" />
            </Array>
          </mxGeometry>
        </mxCell>
        <mxCell id="LNdqoeIzF03pR4x79LL_-40" value="Login Fail" style="edgeLabel;html=1;align=center;verticalAlign=middle;resizable=0;points=[];" vertex="1" connectable="0" parent="LNdqoeIzF03pR4x79LL_-39">
          <mxGeometry x="-0.2905" y="1" relative="1" as="geometry">
            <mxPoint x="-38" y="-1" as="offset" />
          </mxGeometry>
        </mxCell>
        <mxCell id="LNdqoeIzF03pR4x79LL_-41" value="" style="endArrow=classic;html=1;rounded=0;" edge="1" parent="1">
          <mxGeometry width="50" height="50" relative="1" as="geometry">
            <mxPoint x="650" y="855" as="sourcePoint" />
            <mxPoint x="390" y="855" as="targetPoint" />
          </mxGeometry>
        </mxCell>
        <mxCell id="LNdqoeIzF03pR4x79LL_-42" value="Employee Inactive" style="edgeLabel;html=1;align=center;verticalAlign=middle;resizable=0;points=[];" vertex="1" connectable="0" parent="LNdqoeIzF03pR4x79LL_-41">
          <mxGeometry x="0.0581" relative="1" as="geometry">
            <mxPoint as="offset" />
          </mxGeometry>
        </mxCell>
        <mxCell id="LNdqoeIzF03pR4x79LL_-45" value="" style="swimlane;startSize=0;" vertex="1" parent="1">
          <mxGeometry x="10" y="585" width="725" height="380" as="geometry" />
        </mxCell>
        <mxCell id="LNdqoeIzF03pR4x79LL_-46" value="Functionality 2:&amp;nbsp;&lt;br&gt;Employee Login" style="text;html=1;align=center;verticalAlign=middle;resizable=0;points=[];autosize=1;strokeColor=none;fillColor=none;" vertex="1" parent="LNdqoeIzF03pR4x79LL_-45">
          <mxGeometry width="110" height="40" as="geometry" />
        </mxCell>
        <mxCell id="LNdqoeIzF03pR4x79LL_-43" value="" style="endArrow=classic;html=1;rounded=0;" edge="1" parent="LNdqoeIzF03pR4x79LL_-45">
          <mxGeometry width="50" height="50" relative="1" as="geometry">
            <mxPoint x="370.0000000000001" y="269.63" as="sourcePoint" />
            <mxPoint x="80" y="269.63" as="targetPoint" />
          </mxGeometry>
        </mxCell>
        <mxCell id="LNdqoeIzF03pR4x79LL_-44" value="Show Message" style="edgeLabel;html=1;align=center;verticalAlign=middle;resizable=0;points=[];" vertex="1" connectable="0" parent="LNdqoeIzF03pR4x79LL_-43">
          <mxGeometry x="0.0581" relative="1" as="geometry">
            <mxPoint as="offset" />
          </mxGeometry>
        </mxCell>
        <mxCell id="LNdqoeIzF03pR4x79LL_-52" value="" style="endArrow=classic;html=1;rounded=0;" edge="1" parent="LNdqoeIzF03pR4x79LL_-45">
          <mxGeometry width="50" height="50" relative="1" as="geometry">
            <mxPoint x="640" y="320" as="sourcePoint" />
            <mxPoint x="380" y="320" as="targetPoint" />
          </mxGeometry>
        </mxCell>
        <mxCell id="LNdqoeIzF03pR4x79LL_-53" value="Check Role(Librarian || Manager)" style="edgeLabel;html=1;align=center;verticalAlign=middle;resizable=0;points=[];" vertex="1" connectable="0" parent="LNdqoeIzF03pR4x79LL_-52">
          <mxGeometry x="0.0581" relative="1" as="geometry">
            <mxPoint as="offset" />
          </mxGeometry>
        </mxCell>
        <mxCell id="LNdqoeIzF03pR4x79LL_-54" value="" style="endArrow=classic;html=1;rounded=0;" edge="1" parent="LNdqoeIzF03pR4x79LL_-45">
          <mxGeometry width="50" height="50" relative="1" as="geometry">
            <mxPoint x="370.0000000000001" y="320" as="sourcePoint" />
            <mxPoint x="80" y="320" as="targetPoint" />
          </mxGeometry>
        </mxCell>
        <mxCell id="LNdqoeIzF03pR4x79LL_-55" value="Display employee&lt;br&gt;menu" style="edgeLabel;html=1;align=center;verticalAlign=middle;resizable=0;points=[];" vertex="1" connectable="0" parent="LNdqoeIzF03pR4x79LL_-54">
          <mxGeometry x="0.0581" relative="1" as="geometry">
            <mxPoint as="offset" />
          </mxGeometry>
        </mxCell>
        <mxCell id="LNdqoeIzF03pR4x79LL_-56" value="Manager" style="shape=umlActor;verticalLabelPosition=bottom;verticalAlign=top;html=1;" vertex="1" parent="1">
          <mxGeometry x="914" y="80" width="30" height="60" as="geometry" />
        </mxCell>
        <mxCell id="LNdqoeIzF03pR4x79LL_-57" value="Employee&lt;br&gt;Menu" style="html=1;whiteSpace=wrap;" vertex="1" parent="1">
          <mxGeometry x="1174" y="85" width="110" height="50" as="geometry" />
        </mxCell>
        <mxCell id="LNdqoeIzF03pR4x79LL_-58" value="" style="html=1;points=[[0,0,0,0,5],[0,1,0,0,-5],[1,0,0,0,5],[1,1,0,0,-5]];perimeter=orthogonalPerimeter;outlineConnect=0;targetShapes=umlLifeline;portConstraint=eastwest;newEdgeStyle={&quot;curved&quot;:0,&quot;rounded&quot;:0};" vertex="1" parent="1">
          <mxGeometry x="1224" y="170" width="10" height="200" as="geometry" />
        </mxCell>
        <mxCell id="LNdqoeIzF03pR4x79LL_-59" value="" style="endArrow=none;dashed=1;html=1;rounded=0;entryX=0.5;entryY=1;entryDx=0;entryDy=0;" edge="1" parent="1" source="LNdqoeIzF03pR4x79LL_-58" target="LNdqoeIzF03pR4x79LL_-57">
          <mxGeometry width="50" height="50" relative="1" as="geometry">
            <mxPoint x="1144" y="310" as="sourcePoint" />
            <mxPoint x="1194" y="260" as="targetPoint" />
          </mxGeometry>
        </mxCell>
        <mxCell id="LNdqoeIzF03pR4x79LL_-63" value="" style="html=1;points=[[0,0,0,0,5],[0,1,0,0,-5],[1,0,0,0,5],[1,1,0,0,-5]];perimeter=orthogonalPerimeter;outlineConnect=0;targetShapes=umlLifeline;portConstraint=eastwest;newEdgeStyle={&quot;curved&quot;:0,&quot;rounded&quot;:0};" vertex="1" parent="1">
          <mxGeometry x="924" y="170" width="10" height="200" as="geometry" />
        </mxCell>
        <mxCell id="LNdqoeIzF03pR4x79LL_-66" value="" style="endArrow=classic;html=1;rounded=0;" edge="1" parent="1" target="LNdqoeIzF03pR4x79LL_-61">
          <mxGeometry width="50" height="50" relative="1" as="geometry">
            <mxPoint x="1530" y="225" as="sourcePoint" />
            <mxPoint x="1404" y="225" as="targetPoint" />
          </mxGeometry>
        </mxCell>
        <mxCell id="LNdqoeIzF03pR4x79LL_-67" value="insertEmployee(Employee)" style="edgeLabel;html=1;align=center;verticalAlign=middle;resizable=0;points=[];" vertex="1" connectable="0" parent="LNdqoeIzF03pR4x79LL_-66">
          <mxGeometry x="0.209" relative="1" as="geometry">
            <mxPoint x="-7" y="-5" as="offset" />
          </mxGeometry>
        </mxCell>
        <mxCell id="LNdqoeIzF03pR4x79LL_-72" value="" style="swimlane;startSize=0;" vertex="1" parent="1">
          <mxGeometry x="860" y="30" width="1050" height="380" as="geometry" />
        </mxCell>
        <mxCell id="LNdqoeIzF03pR4x79LL_-73" value="Functionality 3:&amp;nbsp;&lt;br&gt;Add Employee" style="text;html=1;align=center;verticalAlign=middle;resizable=0;points=[];autosize=1;strokeColor=none;fillColor=none;" vertex="1" parent="LNdqoeIzF03pR4x79LL_-72">
          <mxGeometry width="110" height="40" as="geometry" />
        </mxCell>
        <mxCell id="LNdqoeIzF03pR4x79LL_-74" value="" style="endArrow=classic;html=1;rounded=0;" edge="1" parent="LNdqoeIzF03pR4x79LL_-72">
          <mxGeometry width="50" height="50" relative="1" as="geometry">
            <mxPoint x="360.0000000000001" y="270" as="sourcePoint" />
            <mxPoint x="70" y="270" as="targetPoint" />
          </mxGeometry>
        </mxCell>
        <mxCell id="LNdqoeIzF03pR4x79LL_-75" value="Show Message" style="edgeLabel;html=1;align=center;verticalAlign=middle;resizable=0;points=[];" vertex="1" connectable="0" parent="LNdqoeIzF03pR4x79LL_-74">
          <mxGeometry x="0.0581" relative="1" as="geometry">
            <mxPoint as="offset" />
          </mxGeometry>
        </mxCell>
        <mxCell id="LNdqoeIzF03pR4x79LL_-78" value="" style="endArrow=classic;html=1;rounded=0;" edge="1" parent="LNdqoeIzF03pR4x79LL_-72">
          <mxGeometry width="50" height="50" relative="1" as="geometry">
            <mxPoint x="936.0000000000001" y="250" as="sourcePoint" />
            <mxPoint x="676" y="250" as="targetPoint" />
          </mxGeometry>
        </mxCell>
        <mxCell id="LNdqoeIzF03pR4x79LL_-79" value="Failed&amp;nbsp;&lt;br&gt;Insert" style="edgeLabel;html=1;align=center;verticalAlign=middle;resizable=0;points=[];" vertex="1" connectable="0" parent="LNdqoeIzF03pR4x79LL_-78">
          <mxGeometry x="0.0581" relative="1" as="geometry">
            <mxPoint as="offset" />
          </mxGeometry>
        </mxCell>
        <mxCell id="LNdqoeIzF03pR4x79LL_-80" value="" style="endArrow=classic;html=1;rounded=0;" edge="1" parent="LNdqoeIzF03pR4x79LL_-72">
          <mxGeometry width="50" height="50" relative="1" as="geometry">
            <mxPoint x="936" y="290" as="sourcePoint" />
            <mxPoint x="676" y="290" as="targetPoint" />
          </mxGeometry>
        </mxCell>
        <mxCell id="LNdqoeIzF03pR4x79LL_-81" value="Succesful&amp;nbsp;&lt;br&gt;Insert" style="edgeLabel;html=1;align=center;verticalAlign=middle;resizable=0;points=[];" vertex="1" connectable="0" parent="LNdqoeIzF03pR4x79LL_-80">
          <mxGeometry x="0.0581" relative="1" as="geometry">
            <mxPoint as="offset" />
          </mxGeometry>
        </mxCell>
        <mxCell id="LNdqoeIzF03pR4x79LL_-60" value="Database" style="html=1;whiteSpace=wrap;" vertex="1" parent="LNdqoeIzF03pR4x79LL_-72">
          <mxGeometry x="886" y="47.5" width="110" height="50" as="geometry" />
        </mxCell>
        <mxCell id="LNdqoeIzF03pR4x79LL_-61" value="" style="html=1;points=[[0,0,0,0,5],[0,1,0,0,-5],[1,0,0,0,5],[1,1,0,0,-5]];perimeter=orthogonalPerimeter;outlineConnect=0;targetShapes=umlLifeline;portConstraint=eastwest;newEdgeStyle={&quot;curved&quot;:0,&quot;rounded&quot;:0};" vertex="1" parent="LNdqoeIzF03pR4x79LL_-72">
          <mxGeometry x="936" y="140" width="10" height="192.5" as="geometry" />
        </mxCell>
        <mxCell id="LNdqoeIzF03pR4x79LL_-62" value="" style="endArrow=none;dashed=1;html=1;rounded=0;entryX=0.5;entryY=1;entryDx=0;entryDy=0;" edge="1" parent="LNdqoeIzF03pR4x79LL_-72" source="LNdqoeIzF03pR4x79LL_-61" target="LNdqoeIzF03pR4x79LL_-60">
          <mxGeometry width="50" height="50" relative="1" as="geometry">
            <mxPoint x="856" y="272.5" as="sourcePoint" />
            <mxPoint x="906" y="222.5" as="targetPoint" />
          </mxGeometry>
        </mxCell>
        <mxCell id="LNdqoeIzF03pR4x79LL_-106" value="Employee&lt;br&gt;Builder" style="html=1;whiteSpace=wrap;" vertex="1" parent="LNdqoeIzF03pR4x79LL_-72">
          <mxGeometry x="616" y="47.5" width="110" height="50" as="geometry" />
        </mxCell>
        <mxCell id="LNdqoeIzF03pR4x79LL_-107" value="" style="html=1;points=[[0,0,0,0,5],[0,1,0,0,-5],[1,0,0,0,5],[1,1,0,0,-5]];perimeter=orthogonalPerimeter;outlineConnect=0;targetShapes=umlLifeline;portConstraint=eastwest;newEdgeStyle={&quot;curved&quot;:0,&quot;rounded&quot;:0};" vertex="1" parent="LNdqoeIzF03pR4x79LL_-72">
          <mxGeometry x="666" y="150" width="10" height="182.5" as="geometry" />
        </mxCell>
        <mxCell id="LNdqoeIzF03pR4x79LL_-108" value="" style="endArrow=none;dashed=1;html=1;rounded=0;entryX=0.5;entryY=1;entryDx=0;entryDy=0;" edge="1" parent="LNdqoeIzF03pR4x79LL_-72" source="LNdqoeIzF03pR4x79LL_-107" target="LNdqoeIzF03pR4x79LL_-106">
          <mxGeometry width="50" height="50" relative="1" as="geometry">
            <mxPoint x="586" y="272.5" as="sourcePoint" />
            <mxPoint x="636" y="222.5" as="targetPoint" />
          </mxGeometry>
        </mxCell>
        <mxCell id="LNdqoeIzF03pR4x79LL_-64" value="" style="endArrow=classic;html=1;rounded=0;entryX=0;entryY=0;entryDx=0;entryDy=5;entryPerimeter=0;" edge="1" parent="LNdqoeIzF03pR4x79LL_-72">
          <mxGeometry width="50" height="50" relative="1" as="geometry">
            <mxPoint x="76" y="170" as="sourcePoint" />
            <mxPoint x="366" y="170" as="targetPoint" />
          </mxGeometry>
        </mxCell>
        <mxCell id="LNdqoeIzF03pR4x79LL_-65" value="addLibrarian(fname, lname,&amp;nbsp;&lt;br&gt;psswd, bdate)" style="edgeLabel;html=1;align=center;verticalAlign=middle;resizable=0;points=[];" vertex="1" connectable="0" parent="LNdqoeIzF03pR4x79LL_-64">
          <mxGeometry x="0.1851" relative="1" as="geometry">
            <mxPoint x="-22" y="-5" as="offset" />
          </mxGeometry>
        </mxCell>
        <mxCell id="LNdqoeIzF03pR4x79LL_-109" value="" style="endArrow=classic;html=1;rounded=0;entryX=0;entryY=0;entryDx=0;entryDy=5;entryPerimeter=0;" edge="1" parent="LNdqoeIzF03pR4x79LL_-72">
          <mxGeometry width="50" height="50" relative="1" as="geometry">
            <mxPoint x="76" y="210" as="sourcePoint" />
            <mxPoint x="366" y="210" as="targetPoint" />
          </mxGeometry>
        </mxCell>
        <mxCell id="LNdqoeIzF03pR4x79LL_-110" value="addManager(fname, lname,&amp;nbsp;&lt;br&gt;psswd, bdate)" style="edgeLabel;html=1;align=center;verticalAlign=middle;resizable=0;points=[];" vertex="1" connectable="0" parent="LNdqoeIzF03pR4x79LL_-109">
          <mxGeometry x="0.1851" relative="1" as="geometry">
            <mxPoint x="-22" y="-5" as="offset" />
          </mxGeometry>
        </mxCell>
        <mxCell id="LNdqoeIzF03pR4x79LL_-111" value="" style="endArrow=classic;html=1;rounded=0;entryX=0;entryY=0;entryDx=0;entryDy=5;entryPerimeter=0;" edge="1" parent="LNdqoeIzF03pR4x79LL_-72">
          <mxGeometry width="50" height="50" relative="1" as="geometry">
            <mxPoint x="376" y="189.5" as="sourcePoint" />
            <mxPoint x="666" y="189.5" as="targetPoint" />
          </mxGeometry>
        </mxCell>
        <mxCell id="LNdqoeIzF03pR4x79LL_-112" value="createEmployee(fname, lname,&amp;nbsp;&lt;br&gt;psswd)" style="edgeLabel;html=1;align=center;verticalAlign=middle;resizable=0;points=[];" vertex="1" connectable="0" parent="LNdqoeIzF03pR4x79LL_-111">
          <mxGeometry x="0.1851" relative="1" as="geometry">
            <mxPoint x="-22" y="-5" as="offset" />
          </mxGeometry>
        </mxCell>
        <mxCell id="LNdqoeIzF03pR4x79LL_-114" value="" style="endArrow=classic;html=1;rounded=0;" edge="1" parent="LNdqoeIzF03pR4x79LL_-72">
          <mxGeometry width="50" height="50" relative="1" as="geometry">
            <mxPoint x="666" y="270" as="sourcePoint" />
            <mxPoint x="376" y="270" as="targetPoint" />
          </mxGeometry>
        </mxCell>
        <mxCell id="LNdqoeIzF03pR4x79LL_-115" value="Show Message" style="edgeLabel;html=1;align=center;verticalAlign=middle;resizable=0;points=[];" vertex="1" connectable="0" parent="LNdqoeIzF03pR4x79LL_-114">
          <mxGeometry x="0.0581" relative="1" as="geometry">
            <mxPoint as="offset" />
          </mxGeometry>
        </mxCell>
        <mxCell id="LNdqoeIzF03pR4x79LL_-83" value="Customer" style="shape=umlActor;verticalLabelPosition=bottom;verticalAlign=top;html=1;" vertex="1" parent="1">
          <mxGeometry x="2100" y="615" width="30" height="60" as="geometry" />
        </mxCell>
        <mxCell id="LNdqoeIzF03pR4x79LL_-84" value="Customer&lt;br&gt;Menu" style="html=1;whiteSpace=wrap;" vertex="1" parent="1">
          <mxGeometry x="2360" y="620" width="110" height="50" as="geometry" />
        </mxCell>
        <mxCell id="LNdqoeIzF03pR4x79LL_-85" value="" style="html=1;points=[[0,0,0,0,5],[0,1,0,0,-5],[1,0,0,0,5],[1,1,0,0,-5]];perimeter=orthogonalPerimeter;outlineConnect=0;targetShapes=umlLifeline;portConstraint=eastwest;newEdgeStyle={&quot;curved&quot;:0,&quot;rounded&quot;:0};" vertex="1" parent="1">
          <mxGeometry x="2410" y="705" width="10" height="200" as="geometry" />
        </mxCell>
        <mxCell id="LNdqoeIzF03pR4x79LL_-86" value="" style="endArrow=none;dashed=1;html=1;rounded=0;entryX=0.5;entryY=1;entryDx=0;entryDy=0;" edge="1" parent="1" source="LNdqoeIzF03pR4x79LL_-85" target="LNdqoeIzF03pR4x79LL_-84">
          <mxGeometry width="50" height="50" relative="1" as="geometry">
            <mxPoint x="2330" y="845" as="sourcePoint" />
            <mxPoint x="2380" y="795" as="targetPoint" />
          </mxGeometry>
        </mxCell>
        <mxCell id="LNdqoeIzF03pR4x79LL_-87" value="Database" style="html=1;whiteSpace=wrap;" vertex="1" parent="1">
          <mxGeometry x="2630" y="620" width="110" height="50" as="geometry" />
        </mxCell>
        <mxCell id="LNdqoeIzF03pR4x79LL_-88" value="" style="html=1;points=[[0,0,0,0,5],[0,1,0,0,-5],[1,0,0,0,5],[1,1,0,0,-5]];perimeter=orthogonalPerimeter;outlineConnect=0;targetShapes=umlLifeline;portConstraint=eastwest;newEdgeStyle={&quot;curved&quot;:0,&quot;rounded&quot;:0};" vertex="1" parent="1">
          <mxGeometry x="2680" y="705" width="10" height="200" as="geometry" />
        </mxCell>
        <mxCell id="LNdqoeIzF03pR4x79LL_-89" value="" style="endArrow=none;dashed=1;html=1;rounded=0;entryX=0.5;entryY=1;entryDx=0;entryDy=0;" edge="1" parent="1" source="LNdqoeIzF03pR4x79LL_-88" target="LNdqoeIzF03pR4x79LL_-87">
          <mxGeometry width="50" height="50" relative="1" as="geometry">
            <mxPoint x="2600" y="845" as="sourcePoint" />
            <mxPoint x="2650" y="795" as="targetPoint" />
          </mxGeometry>
        </mxCell>
        <mxCell id="LNdqoeIzF03pR4x79LL_-90" value="" style="html=1;points=[[0,0,0,0,5],[0,1,0,0,-5],[1,0,0,0,5],[1,1,0,0,-5]];perimeter=orthogonalPerimeter;outlineConnect=0;targetShapes=umlLifeline;portConstraint=eastwest;newEdgeStyle={&quot;curved&quot;:0,&quot;rounded&quot;:0};" vertex="1" parent="1">
          <mxGeometry x="2110" y="705" width="10" height="200" as="geometry" />
        </mxCell>
        <mxCell id="LNdqoeIzF03pR4x79LL_-93" value="" style="endArrow=classic;html=1;rounded=0;" edge="1" parent="1" target="LNdqoeIzF03pR4x79LL_-88">
          <mxGeometry width="50" height="50" relative="1" as="geometry">
            <mxPoint x="2420" y="760" as="sourcePoint" />
            <mxPoint x="2590" y="760" as="targetPoint" />
          </mxGeometry>
        </mxCell>
        <mxCell id="LNdqoeIzF03pR4x79LL_-94" value="search(criteria)" style="edgeLabel;html=1;align=center;verticalAlign=middle;resizable=0;points=[];" vertex="1" connectable="0" parent="LNdqoeIzF03pR4x79LL_-93">
          <mxGeometry x="0.209" relative="1" as="geometry">
            <mxPoint x="-18" as="offset" />
          </mxGeometry>
        </mxCell>
        <mxCell id="LNdqoeIzF03pR4x79LL_-95" value="" style="swimlane;startSize=0;swimlaneLine=0;" vertex="1" parent="1">
          <mxGeometry x="2040" y="565" width="772" height="380" as="geometry" />
        </mxCell>
        <mxCell id="LNdqoeIzF03pR4x79LL_-96" value="Functionality 6:&amp;nbsp;&lt;br&gt;Search Book" style="text;html=1;align=center;verticalAlign=middle;resizable=0;points=[];autosize=1;strokeColor=none;fillColor=none;" vertex="1" parent="LNdqoeIzF03pR4x79LL_-95">
          <mxGeometry width="110" height="40" as="geometry" />
        </mxCell>
        <mxCell id="LNdqoeIzF03pR4x79LL_-97" value="" style="endArrow=classic;html=1;rounded=0;" edge="1" parent="LNdqoeIzF03pR4x79LL_-95">
          <mxGeometry width="50" height="50" relative="1" as="geometry">
            <mxPoint x="370.0000000000001" y="280" as="sourcePoint" />
            <mxPoint x="80" y="280" as="targetPoint" />
          </mxGeometry>
        </mxCell>
        <mxCell id="LNdqoeIzF03pR4x79LL_-98" value="Show Message" style="edgeLabel;html=1;align=center;verticalAlign=middle;resizable=0;points=[];" vertex="1" connectable="0" parent="LNdqoeIzF03pR4x79LL_-97">
          <mxGeometry x="0.0581" relative="1" as="geometry">
            <mxPoint as="offset" />
          </mxGeometry>
        </mxCell>
        <mxCell id="LNdqoeIzF03pR4x79LL_-99" value="" style="endArrow=classic;html=1;rounded=0;" edge="1" parent="LNdqoeIzF03pR4x79LL_-95">
          <mxGeometry width="50" height="50" relative="1" as="geometry">
            <mxPoint x="642.0000000000001" y="260" as="sourcePoint" />
            <mxPoint x="382" y="260" as="targetPoint" />
          </mxGeometry>
        </mxCell>
        <mxCell id="LNdqoeIzF03pR4x79LL_-100" value="Failed&amp;nbsp;&lt;br&gt;SignUp" style="edgeLabel;html=1;align=center;verticalAlign=middle;resizable=0;points=[];" vertex="1" connectable="0" parent="LNdqoeIzF03pR4x79LL_-99">
          <mxGeometry x="0.0581" relative="1" as="geometry">
            <mxPoint as="offset" />
          </mxGeometry>
        </mxCell>
        <mxCell id="LNdqoeIzF03pR4x79LL_-101" value="" style="endArrow=classic;html=1;rounded=0;" edge="1" parent="LNdqoeIzF03pR4x79LL_-95">
          <mxGeometry width="50" height="50" relative="1" as="geometry">
            <mxPoint x="642" y="300" as="sourcePoint" />
            <mxPoint x="382" y="300" as="targetPoint" />
          </mxGeometry>
        </mxCell>
        <mxCell id="LNdqoeIzF03pR4x79LL_-102" value="Succesful&amp;nbsp;&lt;br&gt;SignUp" style="edgeLabel;html=1;align=center;verticalAlign=middle;resizable=0;points=[];" vertex="1" connectable="0" parent="LNdqoeIzF03pR4x79LL_-101">
          <mxGeometry x="0.0581" relative="1" as="geometry">
            <mxPoint as="offset" />
          </mxGeometry>
        </mxCell>
        <mxCell id="LNdqoeIzF03pR4x79LL_-91" value="" style="endArrow=classic;html=1;rounded=0;entryX=0;entryY=0;entryDx=0;entryDy=5;entryPerimeter=0;" edge="1" parent="LNdqoeIzF03pR4x79LL_-95">
          <mxGeometry width="50" height="50" relative="1" as="geometry">
            <mxPoint x="80" y="170" as="sourcePoint" />
            <mxPoint x="370" y="170" as="targetPoint" />
          </mxGeometry>
        </mxCell>
        <mxCell id="LNdqoeIzF03pR4x79LL_-92" value="search(id || title || author)" style="edgeLabel;html=1;align=center;verticalAlign=middle;resizable=0;points=[];" vertex="1" connectable="0" parent="LNdqoeIzF03pR4x79LL_-91">
          <mxGeometry x="0.1851" relative="1" as="geometry">
            <mxPoint x="-26" as="offset" />
          </mxGeometry>
        </mxCell>
        <mxCell id="LNdqoeIzF03pR4x79LL_-121" value="Employee" style="shape=umlActor;verticalLabelPosition=bottom;verticalAlign=top;html=1;" vertex="1" parent="1">
          <mxGeometry x="2104" y="80" width="30" height="60" as="geometry" />
        </mxCell>
        <mxCell id="LNdqoeIzF03pR4x79LL_-122" value="Employee&lt;br&gt;Menu" style="html=1;whiteSpace=wrap;" vertex="1" parent="1">
          <mxGeometry x="2364" y="85" width="110" height="50" as="geometry" />
        </mxCell>
        <mxCell id="LNdqoeIzF03pR4x79LL_-123" value="" style="html=1;points=[[0,0,0,0,5],[0,1,0,0,-5],[1,0,0,0,5],[1,1,0,0,-5]];perimeter=orthogonalPerimeter;outlineConnect=0;targetShapes=umlLifeline;portConstraint=eastwest;newEdgeStyle={&quot;curved&quot;:0,&quot;rounded&quot;:0};" vertex="1" parent="1">
          <mxGeometry x="2414" y="170" width="10" height="200" as="geometry" />
        </mxCell>
        <mxCell id="LNdqoeIzF03pR4x79LL_-124" value="" style="endArrow=none;dashed=1;html=1;rounded=0;entryX=0.5;entryY=1;entryDx=0;entryDy=0;" edge="1" parent="1" source="LNdqoeIzF03pR4x79LL_-123" target="LNdqoeIzF03pR4x79LL_-122">
          <mxGeometry width="50" height="50" relative="1" as="geometry">
            <mxPoint x="2334" y="310" as="sourcePoint" />
            <mxPoint x="2384" y="260" as="targetPoint" />
          </mxGeometry>
        </mxCell>
        <mxCell id="LNdqoeIzF03pR4x79LL_-125" value="" style="html=1;points=[[0,0,0,0,5],[0,1,0,0,-5],[1,0,0,0,5],[1,1,0,0,-5]];perimeter=orthogonalPerimeter;outlineConnect=0;targetShapes=umlLifeline;portConstraint=eastwest;newEdgeStyle={&quot;curved&quot;:0,&quot;rounded&quot;:0};" vertex="1" parent="1">
          <mxGeometry x="2114" y="170" width="10" height="200" as="geometry" />
        </mxCell>
        <mxCell id="LNdqoeIzF03pR4x79LL_-128" value="" style="swimlane;startSize=0;" vertex="1" parent="1">
          <mxGeometry x="2050" y="30" width="1310" height="380" as="geometry" />
        </mxCell>
        <mxCell id="LNdqoeIzF03pR4x79LL_-129" value="Functionality 5:&amp;nbsp;&lt;br&gt;Add Items" style="text;html=1;align=center;verticalAlign=middle;resizable=0;points=[];autosize=1;strokeColor=none;fillColor=none;" vertex="1" parent="LNdqoeIzF03pR4x79LL_-128">
          <mxGeometry width="110" height="40" as="geometry" />
        </mxCell>
        <mxCell id="LNdqoeIzF03pR4x79LL_-132" value="" style="endArrow=classic;html=1;rounded=0;" edge="1" parent="LNdqoeIzF03pR4x79LL_-128" source="LNdqoeIzF03pR4x79LL_-153">
          <mxGeometry width="50" height="50" relative="1" as="geometry">
            <mxPoint x="936.0000000000001" y="250" as="sourcePoint" />
            <mxPoint x="676" y="250" as="targetPoint" />
          </mxGeometry>
        </mxCell>
        <mxCell id="LNdqoeIzF03pR4x79LL_-133" value="Failed&amp;nbsp;&lt;br&gt;Insert" style="edgeLabel;html=1;align=center;verticalAlign=middle;resizable=0;points=[];" vertex="1" connectable="0" parent="LNdqoeIzF03pR4x79LL_-132">
          <mxGeometry x="0.0581" relative="1" as="geometry">
            <mxPoint x="137" as="offset" />
          </mxGeometry>
        </mxCell>
        <mxCell id="LNdqoeIzF03pR4x79LL_-134" value="" style="endArrow=classic;html=1;rounded=0;" edge="1" parent="LNdqoeIzF03pR4x79LL_-128" source="LNdqoeIzF03pR4x79LL_-153">
          <mxGeometry width="50" height="50" relative="1" as="geometry">
            <mxPoint x="936" y="290" as="sourcePoint" />
            <mxPoint x="676" y="290" as="targetPoint" />
          </mxGeometry>
        </mxCell>
        <mxCell id="LNdqoeIzF03pR4x79LL_-135" value="Succesful&amp;nbsp;&lt;br&gt;Insert" style="edgeLabel;html=1;align=center;verticalAlign=middle;resizable=0;points=[];" vertex="1" connectable="0" parent="LNdqoeIzF03pR4x79LL_-134">
          <mxGeometry x="0.0581" relative="1" as="geometry">
            <mxPoint x="137" as="offset" />
          </mxGeometry>
        </mxCell>
        <mxCell id="LNdqoeIzF03pR4x79LL_-136" value="Builders" style="html=1;whiteSpace=wrap;" vertex="1" parent="LNdqoeIzF03pR4x79LL_-128">
          <mxGeometry x="886" y="47.5" width="110" height="50" as="geometry" />
        </mxCell>
        <mxCell id="LNdqoeIzF03pR4x79LL_-137" value="" style="html=1;points=[[0,0,0,0,5],[0,1,0,0,-5],[1,0,0,0,5],[1,1,0,0,-5]];perimeter=orthogonalPerimeter;outlineConnect=0;targetShapes=umlLifeline;portConstraint=eastwest;newEdgeStyle={&quot;curved&quot;:0,&quot;rounded&quot;:0};" vertex="1" parent="LNdqoeIzF03pR4x79LL_-128">
          <mxGeometry x="936" y="140" width="10" height="192.5" as="geometry" />
        </mxCell>
        <mxCell id="LNdqoeIzF03pR4x79LL_-138" value="" style="endArrow=none;dashed=1;html=1;rounded=0;entryX=0.5;entryY=1;entryDx=0;entryDy=0;" edge="1" parent="LNdqoeIzF03pR4x79LL_-128" source="LNdqoeIzF03pR4x79LL_-137" target="LNdqoeIzF03pR4x79LL_-136">
          <mxGeometry width="50" height="50" relative="1" as="geometry">
            <mxPoint x="856" y="272.5" as="sourcePoint" />
            <mxPoint x="906" y="222.5" as="targetPoint" />
          </mxGeometry>
        </mxCell>
        <mxCell id="LNdqoeIzF03pR4x79LL_-139" value="Item&lt;br&gt;Factory" style="html=1;whiteSpace=wrap;" vertex="1" parent="LNdqoeIzF03pR4x79LL_-128">
          <mxGeometry x="616" y="47.5" width="110" height="50" as="geometry" />
        </mxCell>
        <mxCell id="LNdqoeIzF03pR4x79LL_-140" value="" style="html=1;points=[[0,0,0,0,5],[0,1,0,0,-5],[1,0,0,0,5],[1,1,0,0,-5]];perimeter=orthogonalPerimeter;outlineConnect=0;targetShapes=umlLifeline;portConstraint=eastwest;newEdgeStyle={&quot;curved&quot;:0,&quot;rounded&quot;:0};" vertex="1" parent="LNdqoeIzF03pR4x79LL_-128">
          <mxGeometry x="666" y="150" width="10" height="182.5" as="geometry" />
        </mxCell>
        <mxCell id="LNdqoeIzF03pR4x79LL_-141" value="" style="endArrow=none;dashed=1;html=1;rounded=0;entryX=0.5;entryY=1;entryDx=0;entryDy=0;" edge="1" parent="LNdqoeIzF03pR4x79LL_-128" source="LNdqoeIzF03pR4x79LL_-140" target="LNdqoeIzF03pR4x79LL_-139">
          <mxGeometry width="50" height="50" relative="1" as="geometry">
            <mxPoint x="586" y="272.5" as="sourcePoint" />
            <mxPoint x="636" y="222.5" as="targetPoint" />
          </mxGeometry>
        </mxCell>
        <mxCell id="LNdqoeIzF03pR4x79LL_-142" value="" style="endArrow=classic;html=1;rounded=0;entryX=0;entryY=0;entryDx=0;entryDy=5;entryPerimeter=0;" edge="1" parent="LNdqoeIzF03pR4x79LL_-128">
          <mxGeometry width="50" height="50" relative="1" as="geometry">
            <mxPoint x="76" y="170" as="sourcePoint" />
            <mxPoint x="366" y="170" as="targetPoint" />
          </mxGeometry>
        </mxCell>
        <mxCell id="LNdqoeIzF03pR4x79LL_-143" value="addBook(title, author, pubDate,&lt;br&gt;&amp;nbsp;genre)" style="edgeLabel;html=1;align=center;verticalAlign=middle;resizable=0;points=[];" vertex="1" connectable="0" parent="LNdqoeIzF03pR4x79LL_-142">
          <mxGeometry x="0.1851" relative="1" as="geometry">
            <mxPoint x="-22" y="-5" as="offset" />
          </mxGeometry>
        </mxCell>
        <mxCell id="LNdqoeIzF03pR4x79LL_-144" value="" style="endArrow=classic;html=1;rounded=0;entryX=0;entryY=0;entryDx=0;entryDy=5;entryPerimeter=0;" edge="1" parent="LNdqoeIzF03pR4x79LL_-128">
          <mxGeometry width="50" height="50" relative="1" as="geometry">
            <mxPoint x="76" y="210" as="sourcePoint" />
            <mxPoint x="366" y="210" as="targetPoint" />
          </mxGeometry>
        </mxCell>
        <mxCell id="LNdqoeIzF03pR4x79LL_-145" value="addComic(title, author, pubDate,&lt;br&gt;&amp;nbsp;illustrator, genre)" style="edgeLabel;html=1;align=center;verticalAlign=middle;resizable=0;points=[];" vertex="1" connectable="0" parent="LNdqoeIzF03pR4x79LL_-144">
          <mxGeometry x="0.1851" relative="1" as="geometry">
            <mxPoint x="-22" y="-5" as="offset" />
          </mxGeometry>
        </mxCell>
        <mxCell id="LNdqoeIzF03pR4x79LL_-146" value="" style="endArrow=classic;html=1;rounded=0;entryX=0;entryY=0;entryDx=0;entryDy=5;entryPerimeter=0;" edge="1" parent="LNdqoeIzF03pR4x79LL_-128">
          <mxGeometry width="50" height="50" relative="1" as="geometry">
            <mxPoint x="376" y="170" as="sourcePoint" />
            <mxPoint x="666" y="170" as="targetPoint" />
          </mxGeometry>
        </mxCell>
        <mxCell id="LNdqoeIzF03pR4x79LL_-147" value="createBook(title, author, pubDate)" style="edgeLabel;html=1;align=center;verticalAlign=middle;resizable=0;points=[];" vertex="1" connectable="0" parent="LNdqoeIzF03pR4x79LL_-146">
          <mxGeometry x="0.1851" relative="1" as="geometry">
            <mxPoint x="-22" y="-5" as="offset" />
          </mxGeometry>
        </mxCell>
        <mxCell id="LNdqoeIzF03pR4x79LL_-148" value="" style="endArrow=classic;html=1;rounded=0;" edge="1" parent="LNdqoeIzF03pR4x79LL_-128" target="LNdqoeIzF03pR4x79LL_-125">
          <mxGeometry width="50" height="50" relative="1" as="geometry">
            <mxPoint x="666" y="270" as="sourcePoint" />
            <mxPoint x="376" y="270" as="targetPoint" />
          </mxGeometry>
        </mxCell>
        <mxCell id="LNdqoeIzF03pR4x79LL_-149" value="Show Message" style="edgeLabel;html=1;align=center;verticalAlign=middle;resizable=0;points=[];" vertex="1" connectable="0" parent="LNdqoeIzF03pR4x79LL_-148">
          <mxGeometry x="0.0581" relative="1" as="geometry">
            <mxPoint x="-123" as="offset" />
          </mxGeometry>
        </mxCell>
        <mxCell id="LNdqoeIzF03pR4x79LL_-150" value="" style="endArrow=classic;html=1;rounded=0;entryX=0;entryY=0;entryDx=0;entryDy=5;entryPerimeter=0;" edge="1" parent="LNdqoeIzF03pR4x79LL_-128">
          <mxGeometry width="50" height="50" relative="1" as="geometry">
            <mxPoint x="376" y="220" as="sourcePoint" />
            <mxPoint x="666" y="220" as="targetPoint" />
          </mxGeometry>
        </mxCell>
        <mxCell id="LNdqoeIzF03pR4x79LL_-151" value="comicComic(title, author, &lt;br&gt;illustrator, pubDate)" style="edgeLabel;html=1;align=center;verticalAlign=middle;resizable=0;points=[];" vertex="1" connectable="0" parent="LNdqoeIzF03pR4x79LL_-150">
          <mxGeometry x="0.1851" relative="1" as="geometry">
            <mxPoint x="-22" y="-5" as="offset" />
          </mxGeometry>
        </mxCell>
        <mxCell id="LNdqoeIzF03pR4x79LL_-152" value="Database" style="html=1;whiteSpace=wrap;" vertex="1" parent="LNdqoeIzF03pR4x79LL_-128">
          <mxGeometry x="1130" y="47.5" width="110" height="50" as="geometry" />
        </mxCell>
        <mxCell id="LNdqoeIzF03pR4x79LL_-153" value="" style="html=1;points=[[0,0,0,0,5],[0,1,0,0,-5],[1,0,0,0,5],[1,1,0,0,-5]];perimeter=orthogonalPerimeter;outlineConnect=0;targetShapes=umlLifeline;portConstraint=eastwest;newEdgeStyle={&quot;curved&quot;:0,&quot;rounded&quot;:0};" vertex="1" parent="LNdqoeIzF03pR4x79LL_-128">
          <mxGeometry x="1180" y="140" width="10" height="192.5" as="geometry" />
        </mxCell>
        <mxCell id="LNdqoeIzF03pR4x79LL_-154" value="" style="endArrow=none;dashed=1;html=1;rounded=0;entryX=0.5;entryY=1;entryDx=0;entryDy=0;" edge="1" parent="LNdqoeIzF03pR4x79LL_-128" source="LNdqoeIzF03pR4x79LL_-153" target="LNdqoeIzF03pR4x79LL_-152">
          <mxGeometry width="50" height="50" relative="1" as="geometry">
            <mxPoint x="1100" y="272.5" as="sourcePoint" />
            <mxPoint x="1150" y="222.5" as="targetPoint" />
          </mxGeometry>
        </mxCell>
        <mxCell id="LNdqoeIzF03pR4x79LL_-126" value="" style="endArrow=classic;html=1;rounded=0;" edge="1" parent="LNdqoeIzF03pR4x79LL_-128" source="LNdqoeIzF03pR4x79LL_-140">
          <mxGeometry width="50" height="50" relative="1" as="geometry">
            <mxPoint x="680" y="170" as="sourcePoint" />
            <mxPoint x="936" y="170" as="targetPoint" />
          </mxGeometry>
        </mxCell>
        <mxCell id="LNdqoeIzF03pR4x79LL_-127" value="makeBook(title, author, pubDate,&lt;br&gt;&amp;nbsp;genre)" style="edgeLabel;html=1;align=center;verticalAlign=middle;resizable=0;points=[];" vertex="1" connectable="0" parent="LNdqoeIzF03pR4x79LL_-126">
          <mxGeometry x="0.209" relative="1" as="geometry">
            <mxPoint x="-23" y="-5" as="offset" />
          </mxGeometry>
        </mxCell>
        <mxCell id="LNdqoeIzF03pR4x79LL_-159" value="" style="endArrow=classic;html=1;rounded=0;" edge="1" parent="LNdqoeIzF03pR4x79LL_-128">
          <mxGeometry width="50" height="50" relative="1" as="geometry">
            <mxPoint x="676" y="210" as="sourcePoint" />
            <mxPoint x="936" y="210" as="targetPoint" />
          </mxGeometry>
        </mxCell>
        <mxCell id="LNdqoeIzF03pR4x79LL_-160" value="makeComic(title, author, &lt;br&gt;illustrator, pubDate, genre)" style="edgeLabel;html=1;align=center;verticalAlign=middle;resizable=0;points=[];" vertex="1" connectable="0" parent="LNdqoeIzF03pR4x79LL_-159">
          <mxGeometry x="0.209" relative="1" as="geometry">
            <mxPoint x="-23" y="-5" as="offset" />
          </mxGeometry>
        </mxCell>
        <mxCell id="LNdqoeIzF03pR4x79LL_-161" value="" style="endArrow=classic;html=1;rounded=0;" edge="1" parent="LNdqoeIzF03pR4x79LL_-128">
          <mxGeometry width="50" height="50" relative="1" as="geometry">
            <mxPoint x="946" y="169.64" as="sourcePoint" />
            <mxPoint x="1180" y="170" as="targetPoint" />
          </mxGeometry>
        </mxCell>
        <mxCell id="LNdqoeIzF03pR4x79LL_-162" value="insertBook(Book)" style="edgeLabel;html=1;align=center;verticalAlign=middle;resizable=0;points=[];" vertex="1" connectable="0" parent="LNdqoeIzF03pR4x79LL_-161">
          <mxGeometry x="0.209" relative="1" as="geometry">
            <mxPoint x="-23" y="-5" as="offset" />
          </mxGeometry>
        </mxCell>
        <mxCell id="LNdqoeIzF03pR4x79LL_-163" value="" style="endArrow=classic;html=1;rounded=0;" edge="1" parent="LNdqoeIzF03pR4x79LL_-128" target="LNdqoeIzF03pR4x79LL_-153">
          <mxGeometry width="50" height="50" relative="1" as="geometry">
            <mxPoint x="946" y="209.64" as="sourcePoint" />
            <mxPoint x="1170" y="210" as="targetPoint" />
          </mxGeometry>
        </mxCell>
        <mxCell id="LNdqoeIzF03pR4x79LL_-164" value="insertComic(Comic)" style="edgeLabel;html=1;align=center;verticalAlign=middle;resizable=0;points=[];" vertex="1" connectable="0" parent="LNdqoeIzF03pR4x79LL_-163">
          <mxGeometry x="0.209" relative="1" as="geometry">
            <mxPoint x="-23" y="-5" as="offset" />
          </mxGeometry>
        </mxCell>
        <mxCell id="LNdqoeIzF03pR4x79LL_-175" value="Customer" style="shape=umlActor;verticalLabelPosition=bottom;verticalAlign=top;html=1;" vertex="1" parent="1">
          <mxGeometry x="3500" y="650" width="30" height="60" as="geometry" />
        </mxCell>
        <mxCell id="LNdqoeIzF03pR4x79LL_-176" value="Customer&lt;br&gt;Menu" style="html=1;whiteSpace=wrap;" vertex="1" parent="1">
          <mxGeometry x="3760" y="655" width="110" height="50" as="geometry" />
        </mxCell>
        <mxCell id="LNdqoeIzF03pR4x79LL_-177" value="" style="html=1;points=[[0,0,0,0,5],[0,1,0,0,-5],[1,0,0,0,5],[1,1,0,0,-5]];perimeter=orthogonalPerimeter;outlineConnect=0;targetShapes=umlLifeline;portConstraint=eastwest;newEdgeStyle={&quot;curved&quot;:0,&quot;rounded&quot;:0};" vertex="1" parent="1">
          <mxGeometry x="3810" y="740" width="10" height="200" as="geometry" />
        </mxCell>
        <mxCell id="LNdqoeIzF03pR4x79LL_-178" value="" style="endArrow=none;dashed=1;html=1;rounded=0;entryX=0.5;entryY=1;entryDx=0;entryDy=0;" edge="1" parent="1" source="LNdqoeIzF03pR4x79LL_-177" target="LNdqoeIzF03pR4x79LL_-176">
          <mxGeometry width="50" height="50" relative="1" as="geometry">
            <mxPoint x="3730" y="880" as="sourcePoint" />
            <mxPoint x="3780" y="830" as="targetPoint" />
          </mxGeometry>
        </mxCell>
        <mxCell id="LNdqoeIzF03pR4x79LL_-179" value="Database" style="html=1;whiteSpace=wrap;" vertex="1" parent="1">
          <mxGeometry x="4030" y="655" width="110" height="50" as="geometry" />
        </mxCell>
        <mxCell id="LNdqoeIzF03pR4x79LL_-180" value="" style="html=1;points=[[0,0,0,0,5],[0,1,0,0,-5],[1,0,0,0,5],[1,1,0,0,-5]];perimeter=orthogonalPerimeter;outlineConnect=0;targetShapes=umlLifeline;portConstraint=eastwest;newEdgeStyle={&quot;curved&quot;:0,&quot;rounded&quot;:0};" vertex="1" parent="1">
          <mxGeometry x="4080" y="740" width="10" height="200" as="geometry" />
        </mxCell>
        <mxCell id="LNdqoeIzF03pR4x79LL_-181" value="" style="endArrow=none;dashed=1;html=1;rounded=0;entryX=0.5;entryY=1;entryDx=0;entryDy=0;" edge="1" parent="1" source="LNdqoeIzF03pR4x79LL_-180" target="LNdqoeIzF03pR4x79LL_-179">
          <mxGeometry width="50" height="50" relative="1" as="geometry">
            <mxPoint x="4000" y="880" as="sourcePoint" />
            <mxPoint x="4050" y="830" as="targetPoint" />
          </mxGeometry>
        </mxCell>
        <mxCell id="LNdqoeIzF03pR4x79LL_-182" value="" style="html=1;points=[[0,0,0,0,5],[0,1,0,0,-5],[1,0,0,0,5],[1,1,0,0,-5]];perimeter=orthogonalPerimeter;outlineConnect=0;targetShapes=umlLifeline;portConstraint=eastwest;newEdgeStyle={&quot;curved&quot;:0,&quot;rounded&quot;:0};" vertex="1" parent="1">
          <mxGeometry x="3510" y="740" width="10" height="200" as="geometry" />
        </mxCell>
        <mxCell id="LNdqoeIzF03pR4x79LL_-183" value="" style="endArrow=classic;html=1;rounded=0;" edge="1" parent="1" target="LNdqoeIzF03pR4x79LL_-180">
          <mxGeometry width="50" height="50" relative="1" as="geometry">
            <mxPoint x="3820" y="795" as="sourcePoint" />
            <mxPoint x="3990" y="795" as="targetPoint" />
          </mxGeometry>
        </mxCell>
        <mxCell id="LNdqoeIzF03pR4x79LL_-184" value="updateState(id)" style="edgeLabel;html=1;align=center;verticalAlign=middle;resizable=0;points=[];" vertex="1" connectable="0" parent="LNdqoeIzF03pR4x79LL_-183">
          <mxGeometry x="0.209" relative="1" as="geometry">
            <mxPoint x="-18" as="offset" />
          </mxGeometry>
        </mxCell>
        <mxCell id="LNdqoeIzF03pR4x79LL_-185" value="" style="swimlane;startSize=0;swimlaneLine=0;" vertex="1" parent="1">
          <mxGeometry x="3440" y="600" width="772" height="380" as="geometry" />
        </mxCell>
        <mxCell id="LNdqoeIzF03pR4x79LL_-186" value="Functionality 8:&amp;nbsp;&lt;br&gt;Return Book" style="text;html=1;align=center;verticalAlign=middle;resizable=0;points=[];autosize=1;strokeColor=none;fillColor=none;" vertex="1" parent="LNdqoeIzF03pR4x79LL_-185">
          <mxGeometry width="110" height="40" as="geometry" />
        </mxCell>
        <mxCell id="LNdqoeIzF03pR4x79LL_-187" value="" style="endArrow=classic;html=1;rounded=0;" edge="1" parent="LNdqoeIzF03pR4x79LL_-185">
          <mxGeometry width="50" height="50" relative="1" as="geometry">
            <mxPoint x="370.0000000000001" y="280" as="sourcePoint" />
            <mxPoint x="80" y="280" as="targetPoint" />
          </mxGeometry>
        </mxCell>
        <mxCell id="LNdqoeIzF03pR4x79LL_-188" value="Show Message" style="edgeLabel;html=1;align=center;verticalAlign=middle;resizable=0;points=[];" vertex="1" connectable="0" parent="LNdqoeIzF03pR4x79LL_-187">
          <mxGeometry x="0.0581" relative="1" as="geometry">
            <mxPoint as="offset" />
          </mxGeometry>
        </mxCell>
        <mxCell id="LNdqoeIzF03pR4x79LL_-189" value="" style="endArrow=classic;html=1;rounded=0;" edge="1" parent="LNdqoeIzF03pR4x79LL_-185">
          <mxGeometry width="50" height="50" relative="1" as="geometry">
            <mxPoint x="642.0000000000001" y="260" as="sourcePoint" />
            <mxPoint x="382" y="260" as="targetPoint" />
          </mxGeometry>
        </mxCell>
        <mxCell id="LNdqoeIzF03pR4x79LL_-190" value="Failed&amp;nbsp;&lt;br&gt;Returning" style="edgeLabel;html=1;align=center;verticalAlign=middle;resizable=0;points=[];" vertex="1" connectable="0" parent="LNdqoeIzF03pR4x79LL_-189">
          <mxGeometry x="0.0581" relative="1" as="geometry">
            <mxPoint as="offset" />
          </mxGeometry>
        </mxCell>
        <mxCell id="LNdqoeIzF03pR4x79LL_-191" value="" style="endArrow=classic;html=1;rounded=0;" edge="1" parent="LNdqoeIzF03pR4x79LL_-185">
          <mxGeometry width="50" height="50" relative="1" as="geometry">
            <mxPoint x="642" y="300" as="sourcePoint" />
            <mxPoint x="382" y="300" as="targetPoint" />
          </mxGeometry>
        </mxCell>
        <mxCell id="LNdqoeIzF03pR4x79LL_-192" value="Succesful&amp;nbsp;&lt;br&gt;Returning" style="edgeLabel;html=1;align=center;verticalAlign=middle;resizable=0;points=[];" vertex="1" connectable="0" parent="LNdqoeIzF03pR4x79LL_-191">
          <mxGeometry x="0.0581" relative="1" as="geometry">
            <mxPoint as="offset" />
          </mxGeometry>
        </mxCell>
        <mxCell id="LNdqoeIzF03pR4x79LL_-193" value="" style="endArrow=classic;html=1;rounded=0;entryX=0;entryY=0;entryDx=0;entryDy=5;entryPerimeter=0;" edge="1" parent="LNdqoeIzF03pR4x79LL_-185">
          <mxGeometry width="50" height="50" relative="1" as="geometry">
            <mxPoint x="80" y="170" as="sourcePoint" />
            <mxPoint x="370" y="170" as="targetPoint" />
          </mxGeometry>
        </mxCell>
        <mxCell id="LNdqoeIzF03pR4x79LL_-194" value="Return(id)" style="edgeLabel;html=1;align=center;verticalAlign=middle;resizable=0;points=[];" vertex="1" connectable="0" parent="LNdqoeIzF03pR4x79LL_-193">
          <mxGeometry x="0.1851" relative="1" as="geometry">
            <mxPoint x="-26" as="offset" />
          </mxGeometry>
        </mxCell>
        <mxCell id="LNdqoeIzF03pR4x79LL_-195" value="Employee" style="shape=umlActor;verticalLabelPosition=bottom;verticalAlign=top;html=1;" vertex="1" parent="1">
          <mxGeometry x="960" y="630" width="30" height="60" as="geometry" />
        </mxCell>
        <mxCell id="LNdqoeIzF03pR4x79LL_-196" value="Employee&lt;br&gt;Menu" style="html=1;whiteSpace=wrap;" vertex="1" parent="1">
          <mxGeometry x="1220" y="635" width="110" height="50" as="geometry" />
        </mxCell>
        <mxCell id="LNdqoeIzF03pR4x79LL_-197" value="" style="html=1;points=[[0,0,0,0,5],[0,1,0,0,-5],[1,0,0,0,5],[1,1,0,0,-5]];perimeter=orthogonalPerimeter;outlineConnect=0;targetShapes=umlLifeline;portConstraint=eastwest;newEdgeStyle={&quot;curved&quot;:0,&quot;rounded&quot;:0};" vertex="1" parent="1">
          <mxGeometry x="1270" y="720" width="10" height="200" as="geometry" />
        </mxCell>
        <mxCell id="LNdqoeIzF03pR4x79LL_-198" value="" style="endArrow=none;dashed=1;html=1;rounded=0;entryX=0.5;entryY=1;entryDx=0;entryDy=0;" edge="1" parent="1" source="LNdqoeIzF03pR4x79LL_-197" target="LNdqoeIzF03pR4x79LL_-196">
          <mxGeometry width="50" height="50" relative="1" as="geometry">
            <mxPoint x="1190" y="860" as="sourcePoint" />
            <mxPoint x="1240" y="810" as="targetPoint" />
          </mxGeometry>
        </mxCell>
        <mxCell id="LNdqoeIzF03pR4x79LL_-199" value="Database" style="html=1;whiteSpace=wrap;" vertex="1" parent="1">
          <mxGeometry x="1490" y="635" width="110" height="50" as="geometry" />
        </mxCell>
        <mxCell id="LNdqoeIzF03pR4x79LL_-200" value="" style="html=1;points=[[0,0,0,0,5],[0,1,0,0,-5],[1,0,0,0,5],[1,1,0,0,-5]];perimeter=orthogonalPerimeter;outlineConnect=0;targetShapes=umlLifeline;portConstraint=eastwest;newEdgeStyle={&quot;curved&quot;:0,&quot;rounded&quot;:0};" vertex="1" parent="1">
          <mxGeometry x="1540" y="720" width="10" height="200" as="geometry" />
        </mxCell>
        <mxCell id="LNdqoeIzF03pR4x79LL_-201" value="" style="endArrow=none;dashed=1;html=1;rounded=0;entryX=0.5;entryY=1;entryDx=0;entryDy=0;" edge="1" parent="1" source="LNdqoeIzF03pR4x79LL_-200" target="LNdqoeIzF03pR4x79LL_-199">
          <mxGeometry width="50" height="50" relative="1" as="geometry">
            <mxPoint x="1460" y="860" as="sourcePoint" />
            <mxPoint x="1510" y="810" as="targetPoint" />
          </mxGeometry>
        </mxCell>
        <mxCell id="LNdqoeIzF03pR4x79LL_-202" value="" style="html=1;points=[[0,0,0,0,5],[0,1,0,0,-5],[1,0,0,0,5],[1,1,0,0,-5]];perimeter=orthogonalPerimeter;outlineConnect=0;targetShapes=umlLifeline;portConstraint=eastwest;newEdgeStyle={&quot;curved&quot;:0,&quot;rounded&quot;:0};" vertex="1" parent="1">
          <mxGeometry x="970" y="720" width="10" height="200" as="geometry" />
        </mxCell>
        <mxCell id="LNdqoeIzF03pR4x79LL_-203" value="" style="endArrow=classic;html=1;rounded=0;" edge="1" parent="1" target="LNdqoeIzF03pR4x79LL_-200">
          <mxGeometry width="50" height="50" relative="1" as="geometry">
            <mxPoint x="1280" y="775" as="sourcePoint" />
            <mxPoint x="1450" y="775" as="targetPoint" />
          </mxGeometry>
        </mxCell>
        <mxCell id="LNdqoeIzF03pR4x79LL_-204" value="search(criteria)" style="edgeLabel;html=1;align=center;verticalAlign=middle;resizable=0;points=[];" vertex="1" connectable="0" parent="LNdqoeIzF03pR4x79LL_-203">
          <mxGeometry x="0.209" relative="1" as="geometry">
            <mxPoint x="-18" as="offset" />
          </mxGeometry>
        </mxCell>
        <mxCell id="LNdqoeIzF03pR4x79LL_-205" value="" style="swimlane;startSize=0;swimlaneLine=0;" vertex="1" parent="1">
          <mxGeometry x="900" y="580" width="772" height="380" as="geometry" />
        </mxCell>
        <mxCell id="LNdqoeIzF03pR4x79LL_-206" value="Functionality 4:&amp;nbsp;&lt;br&gt;Search Employee" style="text;html=1;align=center;verticalAlign=middle;resizable=0;points=[];autosize=1;strokeColor=none;fillColor=none;" vertex="1" parent="LNdqoeIzF03pR4x79LL_-205">
          <mxGeometry x="-5" width="120" height="40" as="geometry" />
        </mxCell>
        <mxCell id="LNdqoeIzF03pR4x79LL_-207" value="" style="endArrow=classic;html=1;rounded=0;" edge="1" parent="LNdqoeIzF03pR4x79LL_-205">
          <mxGeometry width="50" height="50" relative="1" as="geometry">
            <mxPoint x="370.0000000000001" y="280" as="sourcePoint" />
            <mxPoint x="80" y="280" as="targetPoint" />
          </mxGeometry>
        </mxCell>
        <mxCell id="LNdqoeIzF03pR4x79LL_-208" value="Show Message" style="edgeLabel;html=1;align=center;verticalAlign=middle;resizable=0;points=[];" vertex="1" connectable="0" parent="LNdqoeIzF03pR4x79LL_-207">
          <mxGeometry x="0.0581" relative="1" as="geometry">
            <mxPoint as="offset" />
          </mxGeometry>
        </mxCell>
        <mxCell id="LNdqoeIzF03pR4x79LL_-209" value="" style="endArrow=classic;html=1;rounded=0;" edge="1" parent="LNdqoeIzF03pR4x79LL_-205">
          <mxGeometry width="50" height="50" relative="1" as="geometry">
            <mxPoint x="642.0000000000001" y="260" as="sourcePoint" />
            <mxPoint x="382" y="260" as="targetPoint" />
          </mxGeometry>
        </mxCell>
        <mxCell id="LNdqoeIzF03pR4x79LL_-210" value="Failed&amp;nbsp;&lt;br&gt;SignUp" style="edgeLabel;html=1;align=center;verticalAlign=middle;resizable=0;points=[];" vertex="1" connectable="0" parent="LNdqoeIzF03pR4x79LL_-209">
          <mxGeometry x="0.0581" relative="1" as="geometry">
            <mxPoint as="offset" />
          </mxGeometry>
        </mxCell>
        <mxCell id="LNdqoeIzF03pR4x79LL_-211" value="" style="endArrow=classic;html=1;rounded=0;" edge="1" parent="LNdqoeIzF03pR4x79LL_-205">
          <mxGeometry width="50" height="50" relative="1" as="geometry">
            <mxPoint x="642" y="300" as="sourcePoint" />
            <mxPoint x="382" y="300" as="targetPoint" />
          </mxGeometry>
        </mxCell>
        <mxCell id="LNdqoeIzF03pR4x79LL_-212" value="Succesful&amp;nbsp;&lt;br&gt;SignUp" style="edgeLabel;html=1;align=center;verticalAlign=middle;resizable=0;points=[];" vertex="1" connectable="0" parent="LNdqoeIzF03pR4x79LL_-211">
          <mxGeometry x="0.0581" relative="1" as="geometry">
            <mxPoint as="offset" />
          </mxGeometry>
        </mxCell>
        <mxCell id="LNdqoeIzF03pR4x79LL_-213" value="" style="endArrow=classic;html=1;rounded=0;entryX=0;entryY=0;entryDx=0;entryDy=5;entryPerimeter=0;" edge="1" parent="LNdqoeIzF03pR4x79LL_-205">
          <mxGeometry width="50" height="50" relative="1" as="geometry">
            <mxPoint x="80" y="170" as="sourcePoint" />
            <mxPoint x="370" y="170" as="targetPoint" />
          </mxGeometry>
        </mxCell>
        <mxCell id="LNdqoeIzF03pR4x79LL_-214" value="search(id || fname || lname)" style="edgeLabel;html=1;align=center;verticalAlign=middle;resizable=0;points=[];" vertex="1" connectable="0" parent="LNdqoeIzF03pR4x79LL_-213">
          <mxGeometry x="0.1851" relative="1" as="geometry">
            <mxPoint x="-26" as="offset" />
          </mxGeometry>
        </mxCell>
        <mxCell id="LNdqoeIzF03pR4x79LL_-215" value="" style="endArrow=classic;html=1;rounded=0;" edge="1" parent="LNdqoeIzF03pR4x79LL_-205" target="LNdqoeIzF03pR4x79LL_-202">
          <mxGeometry width="50" height="50" relative="1" as="geometry">
            <mxPoint x="640" y="220" as="sourcePoint" />
            <mxPoint x="380.0000000000002" y="220" as="targetPoint" />
          </mxGeometry>
        </mxCell>
        <mxCell id="LNdqoeIzF03pR4x79LL_-216" value="display" style="edgeLabel;html=1;align=center;verticalAlign=middle;resizable=0;points=[];" vertex="1" connectable="0" parent="LNdqoeIzF03pR4x79LL_-215">
          <mxGeometry x="0.209" relative="1" as="geometry">
            <mxPoint x="7" as="offset" />
          </mxGeometry>
        </mxCell>
        <mxCell id="LNdqoeIzF03pR4x79LL_-217" value="" style="endArrow=classic;html=1;rounded=0;" edge="1" parent="1" source="LNdqoeIzF03pR4x79LL_-88" target="LNdqoeIzF03pR4x79LL_-90">
          <mxGeometry width="50" height="50" relative="1" as="geometry">
            <mxPoint x="2300" y="800" as="sourcePoint" />
            <mxPoint x="1740" y="800" as="targetPoint" />
          </mxGeometry>
        </mxCell>
        <mxCell id="LNdqoeIzF03pR4x79LL_-218" value="display" style="edgeLabel;html=1;align=center;verticalAlign=middle;resizable=0;points=[];" vertex="1" connectable="0" parent="LNdqoeIzF03pR4x79LL_-217">
          <mxGeometry x="0.209" relative="1" as="geometry">
            <mxPoint x="7" as="offset" />
          </mxGeometry>
        </mxCell>
        <mxCell id="LNdqoeIzF03pR4x79LL_-219" value="Customer" style="shape=umlActor;verticalLabelPosition=bottom;verticalAlign=top;html=1;" vertex="1" parent="1">
          <mxGeometry x="3520" y="80" width="30" height="60" as="geometry" />
        </mxCell>
        <mxCell id="LNdqoeIzF03pR4x79LL_-220" value="Customer&lt;br&gt;Menu" style="html=1;whiteSpace=wrap;" vertex="1" parent="1">
          <mxGeometry x="3780" y="85" width="110" height="50" as="geometry" />
        </mxCell>
        <mxCell id="LNdqoeIzF03pR4x79LL_-221" value="" style="html=1;points=[[0,0,0,0,5],[0,1,0,0,-5],[1,0,0,0,5],[1,1,0,0,-5]];perimeter=orthogonalPerimeter;outlineConnect=0;targetShapes=umlLifeline;portConstraint=eastwest;newEdgeStyle={&quot;curved&quot;:0,&quot;rounded&quot;:0};" vertex="1" parent="1">
          <mxGeometry x="3830" y="170" width="10" height="200" as="geometry" />
        </mxCell>
        <mxCell id="LNdqoeIzF03pR4x79LL_-222" value="" style="endArrow=none;dashed=1;html=1;rounded=0;entryX=0.5;entryY=1;entryDx=0;entryDy=0;" edge="1" parent="1" source="LNdqoeIzF03pR4x79LL_-221" target="LNdqoeIzF03pR4x79LL_-220">
          <mxGeometry width="50" height="50" relative="1" as="geometry">
            <mxPoint x="3750" y="310" as="sourcePoint" />
            <mxPoint x="3800" y="260" as="targetPoint" />
          </mxGeometry>
        </mxCell>
        <mxCell id="LNdqoeIzF03pR4x79LL_-223" value="Database" style="html=1;whiteSpace=wrap;" vertex="1" parent="1">
          <mxGeometry x="4050" y="85" width="110" height="50" as="geometry" />
        </mxCell>
        <mxCell id="LNdqoeIzF03pR4x79LL_-224" value="" style="html=1;points=[[0,0,0,0,5],[0,1,0,0,-5],[1,0,0,0,5],[1,1,0,0,-5]];perimeter=orthogonalPerimeter;outlineConnect=0;targetShapes=umlLifeline;portConstraint=eastwest;newEdgeStyle={&quot;curved&quot;:0,&quot;rounded&quot;:0};" vertex="1" parent="1">
          <mxGeometry x="4100" y="170" width="10" height="200" as="geometry" />
        </mxCell>
        <mxCell id="LNdqoeIzF03pR4x79LL_-225" value="" style="endArrow=none;dashed=1;html=1;rounded=0;entryX=0.5;entryY=1;entryDx=0;entryDy=0;" edge="1" parent="1" source="LNdqoeIzF03pR4x79LL_-224" target="LNdqoeIzF03pR4x79LL_-223">
          <mxGeometry width="50" height="50" relative="1" as="geometry">
            <mxPoint x="4020" y="310" as="sourcePoint" />
            <mxPoint x="4070" y="260" as="targetPoint" />
          </mxGeometry>
        </mxCell>
        <mxCell id="LNdqoeIzF03pR4x79LL_-226" value="" style="html=1;points=[[0,0,0,0,5],[0,1,0,0,-5],[1,0,0,0,5],[1,1,0,0,-5]];perimeter=orthogonalPerimeter;outlineConnect=0;targetShapes=umlLifeline;portConstraint=eastwest;newEdgeStyle={&quot;curved&quot;:0,&quot;rounded&quot;:0};" vertex="1" parent="1">
          <mxGeometry x="3530" y="170" width="10" height="200" as="geometry" />
        </mxCell>
        <mxCell id="LNdqoeIzF03pR4x79LL_-227" value="" style="endArrow=classic;html=1;rounded=0;" edge="1" parent="1" target="LNdqoeIzF03pR4x79LL_-224">
          <mxGeometry width="50" height="50" relative="1" as="geometry">
            <mxPoint x="3840" y="225" as="sourcePoint" />
            <mxPoint x="4010" y="225" as="targetPoint" />
          </mxGeometry>
        </mxCell>
        <mxCell id="LNdqoeIzF03pR4x79LL_-228" value="updateState(id)" style="edgeLabel;html=1;align=center;verticalAlign=middle;resizable=0;points=[];" vertex="1" connectable="0" parent="LNdqoeIzF03pR4x79LL_-227">
          <mxGeometry x="0.209" relative="1" as="geometry">
            <mxPoint x="-18" as="offset" />
          </mxGeometry>
        </mxCell>
        <mxCell id="LNdqoeIzF03pR4x79LL_-229" value="" style="swimlane;startSize=0;swimlaneLine=0;" vertex="1" parent="1">
          <mxGeometry x="3460" y="30" width="772" height="380" as="geometry" />
        </mxCell>
        <mxCell id="LNdqoeIzF03pR4x79LL_-230" value="Functionality 7:&amp;nbsp;&lt;br&gt;Borrow Book" style="text;html=1;align=center;verticalAlign=middle;resizable=0;points=[];autosize=1;strokeColor=none;fillColor=none;" vertex="1" parent="LNdqoeIzF03pR4x79LL_-229">
          <mxGeometry width="110" height="40" as="geometry" />
        </mxCell>
        <mxCell id="LNdqoeIzF03pR4x79LL_-231" value="" style="endArrow=classic;html=1;rounded=0;" edge="1" parent="LNdqoeIzF03pR4x79LL_-229">
          <mxGeometry width="50" height="50" relative="1" as="geometry">
            <mxPoint x="370.0000000000001" y="280" as="sourcePoint" />
            <mxPoint x="80" y="280" as="targetPoint" />
          </mxGeometry>
        </mxCell>
        <mxCell id="LNdqoeIzF03pR4x79LL_-232" value="Show Message" style="edgeLabel;html=1;align=center;verticalAlign=middle;resizable=0;points=[];" vertex="1" connectable="0" parent="LNdqoeIzF03pR4x79LL_-231">
          <mxGeometry x="0.0581" relative="1" as="geometry">
            <mxPoint as="offset" />
          </mxGeometry>
        </mxCell>
        <mxCell id="LNdqoeIzF03pR4x79LL_-233" value="" style="endArrow=classic;html=1;rounded=0;" edge="1" parent="LNdqoeIzF03pR4x79LL_-229">
          <mxGeometry width="50" height="50" relative="1" as="geometry">
            <mxPoint x="642.0000000000001" y="260" as="sourcePoint" />
            <mxPoint x="382" y="260" as="targetPoint" />
          </mxGeometry>
        </mxCell>
        <mxCell id="LNdqoeIzF03pR4x79LL_-234" value="Failed&amp;nbsp;&lt;br&gt;Borrowing" style="edgeLabel;html=1;align=center;verticalAlign=middle;resizable=0;points=[];" vertex="1" connectable="0" parent="LNdqoeIzF03pR4x79LL_-233">
          <mxGeometry x="0.0581" relative="1" as="geometry">
            <mxPoint as="offset" />
          </mxGeometry>
        </mxCell>
        <mxCell id="LNdqoeIzF03pR4x79LL_-235" value="" style="endArrow=classic;html=1;rounded=0;" edge="1" parent="LNdqoeIzF03pR4x79LL_-229">
          <mxGeometry width="50" height="50" relative="1" as="geometry">
            <mxPoint x="642" y="300" as="sourcePoint" />
            <mxPoint x="382" y="300" as="targetPoint" />
          </mxGeometry>
        </mxCell>
        <mxCell id="LNdqoeIzF03pR4x79LL_-236" value="Succesful&amp;nbsp;&lt;br&gt;Borrowing" style="edgeLabel;html=1;align=center;verticalAlign=middle;resizable=0;points=[];" vertex="1" connectable="0" parent="LNdqoeIzF03pR4x79LL_-235">
          <mxGeometry x="0.0581" relative="1" as="geometry">
            <mxPoint as="offset" />
          </mxGeometry>
        </mxCell>
        <mxCell id="LNdqoeIzF03pR4x79LL_-237" value="" style="endArrow=classic;html=1;rounded=0;entryX=0;entryY=0;entryDx=0;entryDy=5;entryPerimeter=0;" edge="1" parent="LNdqoeIzF03pR4x79LL_-229">
          <mxGeometry width="50" height="50" relative="1" as="geometry">
            <mxPoint x="80" y="170" as="sourcePoint" />
            <mxPoint x="370" y="170" as="targetPoint" />
          </mxGeometry>
        </mxCell>
        <mxCell id="LNdqoeIzF03pR4x79LL_-238" value="Borrow(id)" style="edgeLabel;html=1;align=center;verticalAlign=middle;resizable=0;points=[];" vertex="1" connectable="0" parent="LNdqoeIzF03pR4x79LL_-237">
          <mxGeometry x="0.1851" relative="1" as="geometry">
            <mxPoint x="-26" as="offset" />
          </mxGeometry>
        </mxCell>
      </root>
    </mxGraphModel>
  </diagram>
</mxfile>
